<svg width="150" height="40" viewBox="0 0 150 40" fill="none" xmlns="http://www.w3.org/2000/svg">
<path d="M0 0H145C147.761 0 150 2.23858 150 5V40H10C4.47715 40 0 35.5228 0 30V0Z" fill="#BC1F27"/>
<path d="M24.74 19.8C25.5533 19.9733 26.2067 20.38 26.7 21.02C27.1933 21.6467 27.44 22.3667 27.44 23.18C27.44 24.3533 27.0267 25.2867 26.2 25.98C25.3867 26.66 24.2467 27 22.78 27H16.24V12.96H22.56C23.9867 12.96 25.1 13.2867 25.9 13.94C26.7133 14.5933 27.12 15.48 27.12 16.6C27.12 17.4267 26.9 18.1133 26.46 18.66C26.0333 19.2067 25.46 19.5867 24.74 19.8ZM19.66 18.64H21.9C22.46 18.64 22.8867 18.52 23.18 18.28C23.4867 18.0267 23.64 17.66 23.64 17.18C23.64 16.7 23.4867 16.3333 23.18 16.08C22.8867 15.8267 22.46 15.7 21.9 15.7H19.66V18.64ZM22.18 24.24C22.7533 24.24 23.1933 24.1133 23.5 23.86C23.82 23.5933 23.98 23.2133 23.98 22.72C23.98 22.2267 23.8133 21.84 23.48 21.56C23.16 21.28 22.7133 21.14 22.14 21.14H19.66V24.24H22.18ZM32.8436 15.7V18.54H37.4236V21.18H32.8436V24.26H38.0236V27H29.4236V12.96H38.0236V15.7H32.8436ZM45.3239 27.14C44.2972 27.14 43.3772 26.9733 42.5639 26.64C41.7506 26.3067 41.0972 25.8133 40.6039 25.16C40.1239 24.5067 39.8706 23.72 39.8439 22.8H43.4839C43.5372 23.32 43.7172 23.72 44.0239 24C44.3306 24.2667 44.7306 24.4 45.2239 24.4C45.7306 24.4 46.1306 24.2867 46.4239 24.06C46.7172 23.82 46.8639 23.4933 46.8639 23.08C46.8639 22.7333 46.7439 22.4467 46.5039 22.22C46.2772 21.9933 45.9906 21.8067 45.6439 21.66C45.3106 21.5133 44.8306 21.3467 44.2039 21.16C43.2972 20.88 42.5572 20.6 41.9839 20.32C41.4106 20.04 40.9172 19.6267 40.5039 19.08C40.0906 18.5333 39.8839 17.82 39.8839 16.94C39.8839 15.6333 40.3572 14.6133 41.3039 13.88C42.2506 13.1333 43.4839 12.76 45.0039 12.76C46.5506 12.76 47.7972 13.1333 48.7439 13.88C49.6906 14.6133 50.1972 15.64 50.2639 16.96H46.5639C46.5372 16.5067 46.3706 16.1533 46.0639 15.9C45.7572 15.6333 45.3639 15.5 44.8839 15.5C44.4706 15.5 44.1372 15.6133 43.8839 15.84C43.6306 16.0533 43.5039 16.3667 43.5039 16.78C43.5039 17.2333 43.7172 17.5867 44.1439 17.84C44.5706 18.0933 45.2372 18.3667 46.1439 18.66C47.0506 18.9667 47.7839 19.26 48.3439 19.54C48.9172 19.82 49.4106 20.2267 49.8239 20.76C50.2372 21.2933 50.4439 21.98 50.4439 22.82C50.4439 23.62 50.2372 24.3467 49.8239 25C49.4239 25.6533 48.8372 26.1733 48.0639 26.56C47.2906 26.9467 46.3772 27.14 45.3239 27.14ZM62.6486 12.96V15.7H58.9286V27H55.5086V15.7H51.7886V12.96H62.6486ZM73.6833 27.14C72.6566 27.14 71.7366 26.9733 70.9233 26.64C70.1099 26.3067 69.4566 25.8133 68.9633 25.16C68.4833 24.5067 68.2299 23.72 68.2033 22.8H71.8433C71.8966 23.32 72.0766 23.72 72.3833 24C72.6899 24.2667 73.0899 24.4 73.5833 24.4C74.0899 24.4 74.4899 24.2867 74.7833 24.06C75.0766 23.82 75.2233 23.4933 75.2233 23.08C75.2233 22.7333 75.1033 22.4467 74.8633 22.22C74.6366 21.9933 74.3499 21.8067 74.0033 21.66C73.6699 21.5133 73.1899 21.3467 72.5633 21.16C71.6566 20.88 70.9166 20.6 70.3433 20.32C69.7699 20.04 69.2766 19.6267 68.8633 19.08C68.4499 18.5333 68.2433 17.82 68.2433 16.94C68.2433 15.6333 68.7166 14.6133 69.6633 13.88C70.6099 13.1333 71.8433 12.76 73.3633 12.76C74.9099 12.76 76.1566 13.1333 77.1033 13.88C78.0499 14.6133 78.5566 15.64 78.6233 16.96H74.9233C74.8966 16.5067 74.7299 16.1533 74.4233 15.9C74.1166 15.6333 73.7233 15.5 73.2433 15.5C72.8299 15.5 72.4966 15.6133 72.2433 15.84C71.9899 16.0533 71.8633 16.3667 71.8633 16.78C71.8633 17.2333 72.0766 17.5867 72.5033 17.84C72.9299 18.0933 73.5966 18.3667 74.5033 18.66C75.4099 18.9667 76.1433 19.26 76.7033 19.54C77.2766 19.82 77.7699 20.2267 78.1833 20.76C78.5966 21.2933 78.8033 21.98 78.8033 22.82C78.8033 23.62 78.5966 24.3467 78.1833 25C77.7833 25.6533 77.1966 26.1733 76.4233 26.56C75.6499 26.9467 74.7366 27.14 73.6833 27.14ZM84.328 15.7V18.54H88.908V21.18H84.328V24.26H89.508V27H80.908V12.96H89.508V15.7H84.328ZM95.1483 24.36H99.6283V27H91.7283V12.96H95.1483V24.36ZM104.68 24.36H109.16V27H101.26V12.96H104.68V24.36ZM114.211 15.7V18.54H118.791V21.18H114.211V24.26H119.391V27H110.791V12.96H119.391V15.7H114.211ZM128.771 27L125.851 21.7H125.031V27H121.611V12.96H127.351C128.458 12.96 129.398 13.1533 130.171 13.54C130.958 13.9267 131.544 14.46 131.931 15.14C132.318 15.8067 132.511 16.5533 132.511 17.38C132.511 18.3133 132.244 19.1467 131.711 19.88C131.191 20.6133 130.418 21.1333 129.391 21.44L132.631 27H128.771ZM125.031 19.28H127.151C127.778 19.28 128.244 19.1267 128.551 18.82C128.871 18.5133 129.031 18.08 129.031 17.52C129.031 16.9867 128.871 16.5667 128.551 16.26C128.244 15.9533 127.778 15.8 127.151 15.8H125.031V19.28Z" fill="white"/>
</svg>
