<svg width="27" height="28" viewBox="0 0 27 28" fill="none" xmlns="http://www.w3.org/2000/svg">
<path d="M7.75634 0.666504H18.9563C23.223 0.666504 26.6897 4.13317 26.6897 8.39984V19.5998C26.6897 21.6508 25.8749 23.6178 24.4246 25.0681C22.9744 26.5184 21.0074 27.3332 18.9563 27.3332H7.75634C3.48968 27.3332 0.0230103 23.8665 0.0230103 19.5998V8.39984C0.0230103 6.34883 0.83777 4.38183 2.28805 2.93154C3.73833 1.48126 5.70534 0.666504 7.75634 0.666504ZM7.48968 3.33317C6.21664 3.33317 4.99574 3.83888 4.09556 4.73906C3.19539 5.63923 2.68968 6.86013 2.68968 8.13317V19.8665C2.68968 22.5198 4.83634 24.6665 7.48968 24.6665H19.223C20.496 24.6665 21.7169 24.1608 22.6171 23.2606C23.5173 22.3604 24.023 21.1395 24.023 19.8665V8.13317C24.023 5.47984 21.8763 3.33317 19.223 3.33317H7.48968ZM20.3563 5.33317C20.7984 5.33317 21.2223 5.50877 21.5349 5.82133C21.8474 6.13389 22.023 6.55781 22.023 6.99984C22.023 7.44186 21.8474 7.86579 21.5349 8.17835C21.2223 8.49091 20.7984 8.6665 20.3563 8.6665C19.9143 8.6665 19.4904 8.49091 19.1778 8.17835C18.8653 7.86579 18.6897 7.44186 18.6897 6.99984C18.6897 6.55781 18.8653 6.13389 19.1778 5.82133C19.4904 5.50877 19.9143 5.33317 20.3563 5.33317ZM13.3563 7.33317C15.1245 7.33317 16.8201 8.03555 18.0704 9.28579C19.3206 10.536 20.023 12.2317 20.023 13.9998C20.023 15.7679 19.3206 17.4636 18.0704 18.7139C16.8201 19.9641 15.1245 20.6665 13.3563 20.6665C11.5882 20.6665 9.89254 19.9641 8.6423 18.7139C7.39206 17.4636 6.68968 15.7679 6.68968 13.9998C6.68968 12.2317 7.39206 10.536 8.6423 9.28579C9.89254 8.03555 11.5882 7.33317 13.3563 7.33317ZM13.3563 9.99984C12.2955 9.99984 11.2781 10.4213 10.5279 11.1714C9.77777 11.9216 9.35634 12.939 9.35634 13.9998C9.35634 15.0607 9.77777 16.0781 10.5279 16.8283C11.2781 17.5784 12.2955 17.9998 13.3563 17.9998C14.4172 17.9998 15.4346 17.5784 16.1848 16.8283C16.9349 16.0781 17.3563 15.0607 17.3563 13.9998C17.3563 12.939 16.9349 11.9216 16.1848 11.1714C15.4346 10.4213 14.4172 9.99984 13.3563 9.99984Z" fill="black"/>
</svg>
