<svg width="25" height="24" viewBox="0 0 25 24" fill="none" xmlns="http://www.w3.org/2000/svg">
<path d="M21.6897 0C22.3969 0 23.0752 0.280951 23.5753 0.781048C24.0754 1.28115 24.3563 1.95942 24.3563 2.66667V21.3333C24.3563 22.0406 24.0754 22.7189 23.5753 23.219C23.0752 23.719 22.3969 24 21.6897 24H3.02299C2.31575 24 1.63747 23.719 1.13737 23.219C0.637275 22.7189 0.356323 22.0406 0.356323 21.3333V2.66667C0.356323 1.95942 0.637275 1.28115 1.13737 0.781048C1.63747 0.280951 2.31575 0 3.02299 0H21.6897ZM21.023 20.6667V13.6C21.023 12.4472 20.565 11.3416 19.7499 10.5264C18.9347 9.71128 17.8291 9.25333 16.6763 9.25333C15.543 9.25333 14.223 9.94667 13.583 10.9867V9.50667H9.86299V20.6667H13.583V14.0933C13.583 13.0667 14.4097 12.2267 15.4363 12.2267C15.9314 12.2267 16.4062 12.4233 16.7563 12.7734C17.1063 13.1235 17.303 13.5983 17.303 14.0933V20.6667H21.023ZM5.52966 7.41333C6.12374 7.41333 6.69349 7.17733 7.11358 6.75725C7.53366 6.33717 7.76966 5.76742 7.76966 5.17333C7.76966 3.93333 6.76966 2.92 5.52966 2.92C4.93204 2.92 4.35889 3.1574 3.93631 3.57999C3.51373 4.00257 3.27632 4.57571 3.27632 5.17333C3.27632 6.41333 4.28966 7.41333 5.52966 7.41333ZM7.38299 20.6667V9.50667H3.68966V20.6667H7.38299Z" fill="black"/>
</svg>
