<svg width="27" height="28" viewBox="0 0 27 28" fill="none" xmlns="http://www.w3.org/2000/svg">
<path d="M13.3563 0.720215C6.02301 0.720215 0.0230103 6.70688 0.0230103 14.0802C0.0230103 20.7469 4.90301 26.2802 11.2763 27.2802V17.9469H7.88968V14.0802H11.2763V11.1335C11.2763 7.78688 13.263 5.94688 16.3163 5.94688C17.7697 5.94688 19.2897 6.20022 19.2897 6.20022V9.49355H17.6097C15.9563 9.49355 15.4363 10.5202 15.4363 11.5735V14.0802H19.143L18.543 17.9469H15.4363V27.2802C18.5783 26.784 21.4393 25.1809 23.5029 22.7603C25.5665 20.3397 26.6968 17.2611 26.6897 14.0802C26.6897 6.70688 20.6897 0.720215 13.3563 0.720215Z" fill="black"/>
</svg>
