<svg width="502" height="557" viewBox="0 0 502 557" fill="none" xmlns="http://www.w3.org/2000/svg">
<g clip-path="url(#clip0_16_257)">
<rect width="502" height="557" rx="32" fill="#2196F3"/>
<g clip-path="url(#clip1_16_257)">
<rect x="-23" y="76" width="472" height="572" rx="32" fill="#FFFDFA"/>
<rect x="21" y="139" width="397" height="80" rx="16" fill="#F7F7F8"/>
<path d="M52.3334 191C59.329 191 65 185.329 65 178.333C65 171.338 59.329 165.667 52.3334 165.667C45.3377 165.667 39.6667 171.338 39.6667 178.333C39.6667 185.329 45.3377 191 52.3334 191Z" stroke="#292D32" stroke-width="2" stroke-linecap="round" stroke-linejoin="round"/>
<path d="M66.3334 192.333L63.6667 189.667" stroke="#292D32" stroke-width="2" stroke-linecap="round" stroke-linejoin="round"/>
<path d="M83.48 178.66C86.7 179.46 88.8 180 88.8 183.26C88.8 185.34 87.26 187.28 83.64 187.28C80.26 187.28 77.64 185.48 77.44 182.2H79.24C79.44 184.16 80.64 185.68 83.64 185.68C86.12 185.68 87 184.54 87 183.26C87 181.3 85.94 180.94 82.74 180.2C80.6 179.7 78.04 178.96 78.04 176.18C78.04 173.92 79.78 172.42 82.94 172.42C85.98 172.42 88.1 173.98 88.34 176.94H86.54C86.28 175.02 85.2 174.02 82.94 174.02C80.92 174.02 79.84 174.8 79.84 175.98C79.84 177.88 81.38 178.14 83.48 178.66ZM94.9595 185.88C96.9995 185.88 97.7595 184.56 97.9395 183.86H99.5395C99.0195 185.76 97.5595 187.28 95.0195 187.28C91.9195 187.28 90.0395 185.1 90.0395 181.9C90.0395 178.5 91.9595 176.52 94.9395 176.52C98.1395 176.52 99.6995 178.7 99.6995 182.32H91.6395C91.6395 184.16 92.7395 185.88 94.9595 185.88ZM94.9395 177.92C93.0195 177.92 91.6395 179.28 91.6395 180.92H98.0995C98.0995 179.28 96.8595 177.92 94.9395 177.92ZM107.524 179.4C107.524 178.6 107.084 177.92 105.444 177.92C103.504 177.92 102.864 178.48 102.764 179.96H101.164C101.264 178 102.484 176.52 105.444 176.52C107.384 176.52 109.124 177.28 109.124 179.74V184.7C109.124 185.5 109.264 185.94 110.284 185.82V186.94C109.864 187.08 109.644 187.1 109.344 187.1C108.384 187.1 107.804 186.84 107.524 185.72H107.484C106.844 186.68 105.704 187.28 104.024 187.28C101.964 187.28 100.664 186.1 100.664 184.38C100.664 182.06 102.384 181.46 105.024 180.96C106.744 180.64 107.524 180.42 107.524 179.4ZM104.184 185.88C106.084 185.88 107.524 185.02 107.524 183.06V181.36C107.224 181.66 106.244 181.94 105.164 182.16C103.184 182.58 102.264 183.08 102.264 184.3C102.264 185.3 102.864 185.88 104.184 185.88ZM115.939 176.52C116.319 176.52 116.599 176.54 116.879 176.58V178.18H116.839C114.619 177.82 113.079 179.38 113.079 181.56V187H111.479V176.8H113.079V178.82H113.119C113.659 177.48 114.479 176.52 115.939 176.52ZM125.184 180.48C125.104 179.36 124.344 177.92 122.304 177.92C119.884 177.92 118.964 179.98 118.964 181.9C118.964 183.82 119.884 185.88 122.304 185.88C124.364 185.88 125.104 184.46 125.184 183.24H126.784C126.644 185.56 124.824 187.28 122.304 187.28C119.324 187.28 117.364 185.1 117.364 181.9C117.364 178.7 119.324 176.52 122.304 176.52C124.824 176.52 126.544 178.2 126.784 180.48H125.184ZM133.315 176.52C135.175 176.52 136.735 177.54 136.735 179.88V187H135.135V180.28C135.135 178.96 134.515 177.92 132.915 177.92C131.115 177.92 129.915 179.06 129.915 180.64V187H128.315V172.7H129.915V178.02H129.955C130.495 177.3 131.575 176.52 133.315 176.52Z" fill="#4D4F51"/>
<path d="M389.093 188.427C389.093 189.24 388.56 190.307 387.88 190.72L386 191.933C384.253 193.013 381.827 191.8 381.827 189.64V182.507C381.827 181.56 381.293 180.347 380.747 179.68L375.627 174.293C374.947 173.613 374.413 172.413 374.413 171.6V168.507C374.413 166.893 375.627 165.68 377.107 165.68H394.893C396.373 165.68 397.587 166.893 397.587 168.373V171.333C397.587 172.413 396.907 173.76 396.24 174.427" stroke="#292D32" stroke-width="2" stroke-miterlimit="10" stroke-linecap="round" stroke-linejoin="round"/>
<path d="M391.427 185.027C393.783 185.027 395.693 183.117 395.693 180.76C395.693 178.404 393.783 176.493 391.427 176.493C389.07 176.493 387.16 178.404 387.16 180.76C387.16 183.117 389.07 185.027 391.427 185.027Z" stroke="#292D32" stroke-width="2" stroke-linecap="round" stroke-linejoin="round"/>
<path d="M396.493 185.827L395.16 184.493" stroke="#292D32" stroke-width="2" stroke-linecap="round" stroke-linejoin="round"/>
<rect x="236.5" y="243.5" width="181" height="53" rx="7.5" fill="#E9F5FE"/>
<rect x="236.5" y="243.5" width="181" height="53" rx="7.5" stroke="#EBECED"/>
<path d="M268 271.907C270.298 271.907 272.16 270.044 272.16 267.747C272.16 265.449 270.298 263.587 268 263.587C265.703 263.587 263.84 265.449 263.84 267.747C263.84 270.044 265.703 271.907 268 271.907Z" stroke="#FFBF00" stroke-width="2"/>
<path d="M256.827 265.32C259.453 253.773 276.56 253.787 279.173 265.333C280.707 272.107 276.493 277.84 272.8 281.387C270.12 283.973 265.88 283.973 263.187 281.387C259.507 277.84 255.293 272.093 256.827 265.32Z" stroke="#FFBF00" stroke-width="2"/>
<path d="M319.144 259.12H322.024V279.44H334.024V282H319.144V259.12ZM346.463 269.84C346.463 268.56 345.759 267.472 343.135 267.472C340.031 267.472 339.007 268.368 338.847 270.736H336.287C336.447 267.6 338.399 265.232 343.135 265.232C346.239 265.232 349.023 266.448 349.023 270.384V278.32C349.023 279.6 349.247 280.304 350.879 280.112V281.904C350.207 282.128 349.855 282.16 349.375 282.16C347.839 282.16 346.911 281.744 346.463 279.952H346.399C345.375 281.488 343.551 282.448 340.863 282.448C337.567 282.448 335.487 280.56 335.487 277.808C335.487 274.096 338.239 273.136 342.463 272.336C345.215 271.824 346.463 271.472 346.463 269.84ZM341.119 280.208C344.159 280.208 346.463 278.832 346.463 275.696V272.976C345.983 273.456 344.415 273.904 342.687 274.256C339.519 274.928 338.047 275.728 338.047 277.68C338.047 279.28 339.007 280.208 341.119 280.208ZM364.407 265.68H366.967V281.104C366.967 285.456 364.215 287.664 359.735 287.664C355.255 287.664 352.599 285.296 352.343 282.512H354.903C355.223 284.176 356.567 285.424 359.607 285.424C362.647 285.424 364.407 284.112 364.407 281.072V278.608H364.343C363.383 280.016 361.847 281.168 359.159 281.168C355.127 281.168 351.863 278.576 351.863 273.2C351.863 267.824 355.127 265.232 359.159 265.232C361.847 265.232 363.383 266.448 364.343 267.696H364.407V265.68ZM359.479 278.928C362.519 278.928 364.407 277.04 364.407 273.2C364.407 269.36 362.519 267.472 359.479 267.472C356.119 267.472 354.423 270 354.423 273.2C354.423 276.4 356.119 278.928 359.479 278.928ZM377.551 282.448C372.559 282.448 369.551 278.928 369.551 273.84C369.551 268.752 372.559 265.232 377.551 265.232C382.511 265.232 385.519 268.752 385.519 273.84C385.519 278.928 382.511 282.448 377.551 282.448ZM377.551 280.208C381.199 280.208 382.959 277.328 382.959 273.84C382.959 270.352 381.199 267.472 377.551 267.472C373.871 267.472 372.111 270.352 372.111 273.84C372.111 277.328 373.871 280.208 377.551 280.208ZM394.728 272.304C397.64 273.008 400.936 273.488 400.936 277.52C400.936 280.496 398.216 282.448 394.504 282.448C389.512 282.448 387.208 280.08 387.048 276.56H389.608C389.768 278.384 390.408 280.208 394.504 280.208C397.288 280.208 398.376 278.768 398.376 277.68C398.376 275.312 396.232 275.184 393.896 274.608C391.4 274 387.688 273.712 387.688 269.872C387.688 267.312 389.96 265.232 393.8 265.232C397.864 265.232 400.04 267.536 400.296 270.352H397.736C397.48 269.104 396.872 267.472 393.8 267.472C391.496 267.472 390.248 268.4 390.248 269.68C390.248 271.6 392.456 271.76 394.728 272.304Z" fill="#1E1F1F"/>
<rect x="236.5" y="321.5" width="181" height="53" rx="7.5" fill="#E9F5FE"/>
<rect x="236.5" y="321.5" width="181" height="53" rx="7.5" stroke="#EBECED"/>
<path d="M270.307 336.68L272.653 341.373C272.973 342.026 273.827 342.653 274.547 342.773L278.8 343.48C281.52 343.933 282.16 345.906 280.2 347.853L276.893 351.16C276.333 351.72 276.027 352.8 276.2 353.573L277.147 357.666C277.893 360.906 276.173 362.16 273.307 360.466L269.32 358.106C268.6 357.68 267.413 357.68 266.68 358.106L262.693 360.466C259.84 362.16 258.107 360.893 258.853 357.666L259.8 353.573C259.973 352.8 259.667 351.72 259.107 351.16L255.8 347.853C253.853 345.906 254.48 343.933 257.2 343.48L261.453 342.773C262.16 342.653 263.013 342.026 263.333 341.373L265.68 336.68C266.96 334.133 269.04 334.133 270.307 336.68Z" stroke="#2196F3" stroke-width="2" stroke-linecap="round" stroke-linejoin="round"/>
<path d="M334.6 345.152C338.76 345.152 341.672 348.352 341.672 352.448C341.672 357.216 338.184 360.448 333.736 360.448C328.68 360.448 325.864 357.184 325.736 353.632H328.616C328.872 355.776 330.152 357.888 333.608 357.888C336.648 357.888 338.792 356 338.792 352.448C338.792 349.12 336.776 347.712 333.928 347.712C331.944 347.712 330.216 348.352 329.096 349.792H326.024L328.328 337.888H340.488V340.448H330.664L329.352 347.136V347.2C330.472 345.92 332.136 345.152 334.6 345.152ZM357.478 350.304C360.39 351.008 363.686 351.488 363.686 355.52C363.686 358.496 360.966 360.448 357.254 360.448C352.262 360.448 349.958 358.08 349.798 354.56H352.358C352.518 356.384 353.158 358.208 357.254 358.208C360.038 358.208 361.126 356.768 361.126 355.68C361.126 353.312 358.982 353.184 356.646 352.608C354.15 352 350.438 351.712 350.438 347.872C350.438 345.312 352.71 343.232 356.55 343.232C360.614 343.232 362.79 345.536 363.046 348.352H360.486C360.23 347.104 359.622 345.472 356.55 345.472C354.246 345.472 352.998 346.4 352.998 347.68C352.998 349.6 355.206 349.76 357.478 350.304ZM372.958 345.92H369.758V355.744C369.758 357.6 370.782 357.92 372.958 357.76V360C372.382 360.128 371.71 360.192 371.038 360.192C368.862 360.192 367.198 359.328 367.198 356V345.92H364.798V343.68H367.198V338.24H369.758V343.68H372.958V345.92ZM385.619 347.84C385.619 346.56 384.915 345.472 382.291 345.472C379.187 345.472 378.163 346.368 378.003 348.736H375.443C375.603 345.6 377.555 343.232 382.291 343.232C385.395 343.232 388.179 344.448 388.179 348.384V356.32C388.179 357.6 388.403 358.304 390.035 358.112V359.904C389.363 360.128 389.011 360.16 388.531 360.16C386.995 360.16 386.067 359.744 385.619 357.952H385.555C384.531 359.488 382.707 360.448 380.019 360.448C376.723 360.448 374.643 358.56 374.643 355.808C374.643 352.096 377.395 351.136 381.619 350.336C384.371 349.824 385.619 349.472 385.619 347.84ZM380.275 358.208C383.315 358.208 385.619 356.832 385.619 353.696V350.976C385.139 351.456 383.571 351.904 381.843 352.256C378.675 352.928 377.203 353.728 377.203 355.68C377.203 357.28 378.163 358.208 380.275 358.208ZM399.084 343.232C399.692 343.232 400.14 343.264 400.588 343.328V345.888H400.524C396.972 345.312 394.508 347.808 394.508 351.296V360H391.948V343.68H394.508V346.912H394.572C395.436 344.768 396.748 343.232 399.084 343.232Z" fill="#1E1F1F"/>
<rect x="236.5" y="399.5" width="181" height="53" rx="7.5" fill="#E9F5FE"/>
<rect x="236.5" y="399.5" width="181" height="53" rx="7.5" stroke="#EBECED"/>
<path d="M262 420.227V418.933C262 415.933 264.413 412.987 267.413 412.707C270.987 412.36 274 415.173 274 418.68V420.52" stroke="#F38021" stroke-width="2" stroke-miterlimit="10" stroke-linecap="round" stroke-linejoin="round"/>
<path d="M264 439.333H272C277.36 439.333 278.32 437.187 278.6 434.573L279.6 426.573C279.96 423.32 279.027 420.667 273.333 420.667H262.667C256.973 420.667 256.04 423.32 256.4 426.573L257.4 434.573C257.68 437.187 258.64 439.333 264 439.333Z" stroke="#F38021" stroke-width="2" stroke-miterlimit="10" stroke-linecap="round" stroke-linejoin="round"/>
<path d="M272.661 426H272.673" stroke="#F38021" stroke-width="2" stroke-linecap="round" stroke-linejoin="round"/>
<path d="M263.326 426H263.338" stroke="#F38021" stroke-width="2" stroke-linecap="round" stroke-linejoin="round"/>
<path d="M350.848 420.88C350.848 423.696 349.184 424.976 347.296 425.616V425.68C349.696 426.096 351.744 427.92 351.744 431.344C351.744 435.568 348.736 438 344 438H334.144V415.12H343.36C348.032 415.12 350.848 417.328 350.848 420.88ZM337.024 424.688H343.808C347.072 424.688 347.968 423.28 347.968 421.2C347.968 419.12 346.752 417.68 344.128 417.68H337.024V424.688ZM337.024 427.248V435.44H344.288C347.968 435.44 348.864 433.488 348.864 431.344C348.864 428.88 347.328 427.248 344.928 427.248H337.024ZM364.338 425.84C364.338 424.56 363.634 423.472 361.01 423.472C357.906 423.472 356.882 424.368 356.722 426.736H354.162C354.322 423.6 356.274 421.232 361.01 421.232C364.114 421.232 366.898 422.448 366.898 426.384V434.32C366.898 435.6 367.122 436.304 368.754 436.112V437.904C368.082 438.128 367.73 438.16 367.25 438.16C365.714 438.16 364.786 437.744 364.338 435.952H364.274C363.25 437.488 361.426 438.448 358.738 438.448C355.442 438.448 353.362 436.56 353.362 433.808C353.362 430.096 356.114 429.136 360.338 428.336C363.09 427.824 364.338 427.472 364.338 425.84ZM358.994 436.208C362.034 436.208 364.338 434.832 364.338 431.696V428.976C363.858 429.456 362.29 429.904 360.562 430.256C357.394 430.928 355.922 431.728 355.922 433.68C355.922 435.28 356.882 436.208 358.994 436.208ZM382.282 421.68H384.842V437.104C384.842 441.456 382.09 443.664 377.61 443.664C373.13 443.664 370.474 441.296 370.218 438.512H372.778C373.098 440.176 374.442 441.424 377.482 441.424C380.522 441.424 382.282 440.112 382.282 437.072V434.608H382.218C381.258 436.016 379.722 437.168 377.034 437.168C373.002 437.168 369.738 434.576 369.738 429.2C369.738 423.824 373.002 421.232 377.034 421.232C379.722 421.232 381.258 422.448 382.218 423.696H382.282V421.68ZM377.354 434.928C380.394 434.928 382.282 433.04 382.282 429.2C382.282 425.36 380.394 423.472 377.354 423.472C373.994 423.472 372.298 426 372.298 429.2C372.298 432.4 373.994 434.928 377.354 434.928ZM394.978 428.304C397.89 429.008 401.186 429.488 401.186 433.52C401.186 436.496 398.466 438.448 394.754 438.448C389.762 438.448 387.458 436.08 387.298 432.56H389.858C390.018 434.384 390.658 436.208 394.754 436.208C397.538 436.208 398.626 434.768 398.626 433.68C398.626 431.312 396.482 431.184 394.146 430.608C391.65 430 387.938 429.712 387.938 425.872C387.938 423.312 390.21 421.232 394.05 421.232C398.114 421.232 400.29 423.536 400.546 426.352H397.986C397.73 425.104 397.122 423.472 394.05 423.472C391.746 423.472 390.498 424.4 390.498 425.68C390.498 427.6 392.706 427.76 394.978 428.304Z" fill="#1E1F1F"/>
<path d="M212 561C212 636.484 149.277 698 71.5 698C-6.27695 698 -69 636.484 -69 561C-69 485.516 -6.27695 424 71.5 424C149.277 424 212 485.516 212 561Z" stroke="#E9F5FE" stroke-width="16"/>
</g>
<rect x="-22.5" y="76.5" width="471" height="571" rx="31.5" stroke="#DBDDDF"/>
</g>
<defs>
<clipPath id="clip0_16_257">
<rect width="502" height="557" rx="32" fill="white"/>
</clipPath>
<clipPath id="clip1_16_257">
<rect x="-23" y="76" width="472" height="572" rx="32" fill="white"/>
</clipPath>
</defs>
</svg>
