<svg width="22" height="24" viewBox="0 0 22 24" fill="none" xmlns="http://www.w3.org/2000/svg">
<path d="M17.4897 3.76C16.5782 2.7195 16.076 1.38324 16.0763 0H11.9563V16.5333C11.9246 17.428 11.5468 18.2755 10.9027 18.8973C10.2586 19.519 9.39828 19.8665 8.50302 19.8667C6.60968 19.8667 5.03635 18.32 5.03635 16.4C5.03635 14.1067 7.24968 12.3867 9.52968 13.0933V8.88C4.92968 8.26667 0.903015 11.84 0.903015 16.4C0.903015 20.84 4.58302 24 8.48968 24C12.6763 24 16.0763 20.6 16.0763 16.4V8.01333C17.747 9.21313 19.7528 9.85686 21.8097 9.85333V5.73333C21.8097 5.73333 19.303 5.85333 17.4897 3.76Z" fill="black"/>
</svg>
